<?xml version="1.0" encoding="utf-8"?>
<!-- Generator: Adobe Illustrator 20.0.0, SVG Export Plug-In . SVG Version: 6.00 Build 0)  -->
<svg version="1.1" id="Layer_1" xmlns="http://www.w3.org/2000/svg" xmlns:xlink="http://www.w3.org/1999/xlink" x="0px" y="0px"
	 viewBox="0 0 506.3 195" style="enable-background:new 0 0 506.3 195;" xml:space="preserve">
<style type="text/css">
	.st0{fill:#FF0000;}
</style>
<g>
	<path class="st0" d="M51.9,105.8l-28.7,64.5H2.3l31.5-68.9C19,93.8,9.1,80.1,9.1,54.9C9.1,19.7,31.5,2,58,2h27.1v168.2H67v-64.5
		H51.9z M67,17.3h-9.6c-14.6,0-28.7,9.6-28.7,37.6c0,27.1,12.9,35.8,28.7,35.8H67V17.3z"/>
	<path d="M172.4,51.6v118.6h-18.1V117H127v53.2h-18.3V51.6H127V102h27.3V51.6H172.4z M266.7,193.5h-16.5v-23.3h-50.8v23.3H183v-38.3
		h7.3c10.8-25.2,12-61.9,12-93.4V51.6h55v103.5h9.4V193.5z M239.2,66.5h-20.5v2.1c0,24.9-1.2,61.4-11.1,86.6h31.5V66.5z
		 M317.3,171.9c-24.5,0-39.5-19.5-39.5-56c0-38.1,10.6-65.9,35.8-65.9c19.8,0,32.7,14.8,32.7,55v10.1h-49.4
		c0,26.8,7.5,40.9,22.1,40.9c10.4,0,18.6-4.7,23.3-8l4.2,14.1C338.9,168.1,329.1,171.9,317.3,171.9z M297.1,100.1h30.3
		c0-20.2-3.3-35.1-13.9-35.1C302.2,65.1,298.2,78.9,297.1,100.1z M383.4,111.2v59H365V51.6h18.3v54.8l28.5-54.8h18.6L401,107.4
		l33.6,62.8h-20L383.4,111.2z M437,110.9c0-37.2,14.4-60.9,42.1-60.9c10.6,0,16.7,2.8,21.9,6.1l-2.6,17.4c-4.9-4.2-12-8.2-19.5-8.2
		c-13.2,0-22.6,14.8-22.6,44.7c0,29.6,7.1,46.6,21.9,46.6c8.9,0,15.8-3.5,20-7.3l4.2,13.6c-6.4,5.4-13.9,8.9-24.7,8.9
		C452.3,171.9,437,151.4,437,110.9z"/>
</g>
</svg>
